<svg xmlns="http://www.w3.org/2000/svg">
  <!-- Heliostack icon sprite. 24×24, stroke-based; stroke/fill come from the <Icon> element. -->
  <symbol id="logo" viewBox="0 0 24 24"><circle cx="12" cy="12" r="7.5"/><circle cx="12" cy="12" r="2.5" fill="currentColor"/><path d="M12 1.5v2M12 20.5v2M1.5 12h2M20.5 12h2"/></symbol>
  <symbol id="home" viewBox="0 0 24 24"><path d="M3 10.5 12 3l9 7.5"/><path d="M5 9.5V21h14V9.5"/><path d="M10 21v-6h4v6"/></symbol>
  <symbol id="search" viewBox="0 0 24 24"><circle cx="11" cy="11" r="7"/><path d="m20 20-3.5-3.5"/></symbol>
  <symbol id="bell" viewBox="0 0 24 24"><path d="M6 8a6 6 0 0 1 12 0c0 7 3 9 3 9H3s3-2 3-9"/><path d="M10.3 21a1.94 1.94 0 0 0 3.4 0"/></symbol>
  <symbol id="mail" viewBox="0 0 24 24"><rect x="2" y="4" width="20" height="16" rx="2"/><path d="m22 7-10 6L2 7"/></symbol>
  <symbol id="bookmark" viewBox="0 0 24 24"><path d="M19 21l-7-4-7 4V5a2 2 0 0 1 2-2h10a2 2 0 0 1 2 2z"/></symbol>
  <symbol id="user" viewBox="0 0 24 24"><circle cx="12" cy="8" r="4"/><path d="M4 21a8 8 0 0 1 16 0"/></symbol>
  <symbol id="users" viewBox="0 0 24 24"><circle cx="9" cy="8" r="4"/><path d="M1.5 21a7.5 7.5 0 0 1 15 0"/><path d="M16 3.5a4 4 0 0 1 0 8M19 14.5a7.5 7.5 0 0 1 3.5 6.5"/></symbol>
  <symbol id="settings" viewBox="0 0 24 24"><path d="M4 6h9M17 6h3M4 12h3M11 12h9M4 18h11M19 18h1"/><circle cx="15" cy="6" r="2"/><circle cx="9" cy="12" r="2"/><circle cx="17" cy="18" r="2"/></symbol>
  <symbol id="heart" viewBox="0 0 24 24"><path d="M19 14c1.49-1.46 3-3.21 3-5.5A5.5 5.5 0 0 0 16.5 3c-1.76 0-3 .5-4.5 2-1.5-1.5-2.74-2-4.5-2A5.5 5.5 0 0 0 2 8.5c0 2.3 1.5 4.05 3 5.5l7 7Z"/></symbol>
  <symbol id="repeat" viewBox="0 0 24 24"><path d="m17 2 4 4-4 4"/><path d="M3 11v-1a4 4 0 0 1 4-4h14"/><path d="m7 22-4-4 4-4"/><path d="M21 13v1a4 4 0 0 1-4 4H3"/></symbol>
  <symbol id="reply" viewBox="0 0 24 24"><path d="M7.9 20A9 9 0 1 0 4 16.1L2 22Z"/></symbol>
  <symbol id="quote" viewBox="0 0 24 24"><path d="M12 20h9"/><path d="M16.5 3.5a2.12 2.12 0 0 1 3 3L7 19l-4 1 1-4Z"/></symbol>
  <symbol id="share" viewBox="0 0 24 24"><path d="M12 3v13"/><path d="m7 8 5-5 5 5"/><path d="M5 14v5a2 2 0 0 0 2 2h10a2 2 0 0 0 2-2v-5"/></symbol>
  <symbol id="more" viewBox="0 0 24 24"><circle cx="5" cy="12" r="1.2" fill="currentColor"/><circle cx="12" cy="12" r="1.2" fill="currentColor"/><circle cx="19" cy="12" r="1.2" fill="currentColor"/></symbol>
  <symbol id="close" viewBox="0 0 24 24"><path d="M18 6 6 18M6 6l12 12"/></symbol>
  <symbol id="arrow-left" viewBox="0 0 24 24"><path d="M19 12H5M12 19l-7-7 7-7"/></symbol>
  <symbol id="arrow-up" viewBox="0 0 24 24"><path d="M12 19V5M5 12l7-7 7 7"/></symbol>
  <symbol id="plus" viewBox="0 0 24 24"><path d="M12 5v14M5 12h14"/></symbol>
  <symbol id="check" viewBox="0 0 24 24"><path d="M20 6 9 17l-5-5"/></symbol>
  <symbol id="image" viewBox="0 0 24 24"><rect x="3" y="3" width="18" height="18" rx="2"/><circle cx="9" cy="9" r="2"/><path d="m21 15-3.1-3.1a2 2 0 0 0-2.8 0L6 21"/></symbol>
  <symbol id="logout" viewBox="0 0 24 24"><path d="M9 21H5a2 2 0 0 1-2-2V5a2 2 0 0 1 2-2h4"/><path d="m16 17 5-5-5-5"/><path d="M21 12H9"/></symbol>
  <symbol id="sun" viewBox="0 0 24 24"><circle cx="12" cy="12" r="4"/><path d="M12 2v2M12 20v2M4.9 4.9l1.4 1.4M17.7 17.7l1.4 1.4M2 12h2M20 12h2M4.9 19.1l1.4-1.4M17.7 6.3l1.4-1.4"/></symbol>
  <symbol id="moon" viewBox="0 0 24 24"><path d="M12 3a6 6 0 0 0 9 9 9 9 0 1 1-9-9Z"/></symbol>
  <symbol id="monitor" viewBox="0 0 24 24"><rect x="2" y="3" width="20" height="14" rx="2"/><path d="M8 21h8M12 17v4"/></symbol>
  <symbol id="trending" viewBox="0 0 24 24"><path d="m22 7-8.5 8.5-5-5L2 17"/><path d="M16 7h6v6"/></symbol>
  <symbol id="calendar" viewBox="0 0 24 24"><rect x="3" y="4" width="18" height="18" rx="2"/><path d="M16 2v4M8 2v4M3 10h18"/></symbol>
  <symbol id="map-pin" viewBox="0 0 24 24"><path d="M20 10c0 6-8 12-8 12s-8-6-8-12a8 8 0 0 1 16 0Z"/><circle cx="12" cy="10" r="3"/></symbol>
  <symbol id="link" viewBox="0 0 24 24"><path d="M10 13a5 5 0 0 0 7.54.54l3-3a5 5 0 0 0-7.07-7.07l-1.72 1.71"/><path d="M14 11a5 5 0 0 0-7.54-.54l-3 3a5 5 0 0 0 7.07 7.07l1.71-1.71"/></symbol>
  <symbol id="trash" viewBox="0 0 24 24"><path d="M3 6h18M8 6V4a2 2 0 0 1 2-2h4a2 2 0 0 1 2 2v2M19 6l-1 14a2 2 0 0 1-2 2H8a2 2 0 0 1-2-2L5 6"/></symbol>
  <symbol id="send" viewBox="0 0 24 24"><path d="m22 2-7 20-4-9-9-4Z"/><path d="M22 2 11 13"/></symbol>
  <symbol id="palette" viewBox="0 0 24 24"><path d="M12 22a10 10 0 1 1 10-10c0 2.8-2.2 4-4 4h-2a2 2 0 0 0-1.5 3.3A1.7 1.7 0 0 1 12 22Z"/><circle cx="7.5" cy="10.5" r="1.2" fill="currentColor"/><circle cx="12" cy="7" r="1.2" fill="currentColor"/><circle cx="16.5" cy="10.5" r="1.2" fill="currentColor"/></symbol>
  <symbol id="sparkles" viewBox="0 0 24 24"><path d="M12 3l1.9 5.1L19 10l-5.1 1.9L12 17l-1.9-5.1L5 10l5.1-1.9Z"/><path d="M19 15l.9 2.1L22 18l-2.1.9L19 21l-.9-2.1L16 18l2.1-.9Z"/></symbol>
  <symbol id="verified" viewBox="0 0 24 24"><path fill="currentColor" stroke="none" d="M12 1.8l2.6 1.9 3.2-.1 1 3.1 2.6 1.9-1 3.1 1 3.1-2.6 1.9-1 3.1-3.2-.1L12 22.2l-2.6-1.9-3.2.1-1-3.1-2.6-1.9 1-3.1-1-3.1 2.6-1.9 1-3.1 3.2.1Z"/><path stroke="var(--primary-foreground)" d="m8.2 12.2 2.5 2.5 5-5.2"/></symbol>
</svg>
